<svg xmlns="http://www.w3.org/2000/svg" viewBox="0 0 32 32" id="earth"><g data-name="Layer 2"><path fill="#29b6f6" d="M30,16A14,14,0,0,1,4.53,24a4.72,4.72,0,0,1-.32-.46A13.36,13.36,0,0,1,2.59,20c-.08-.25-.15-.51-.21-.77A9.89,9.89,0,0,1,2.15,18,13.36,13.36,0,0,1,2,16,14,14,0,0,1,27.47,8H19a3,3,0,0,0-3,3,3,3,0,0,0,3,3H29.85A13.36,13.36,0,0,1,30,16Z"></path><path fill="#039be5" d="M16 11V2A13.93 13.93 0 0 1 27.47 8H19A3 3 0 0 0 16 11zM30 16A14 14 0 0 1 16 30V11a3 3 0 0 0 3 3H29.85A13.36 13.36 0 0 1 30 16z"></path><path d="M29.41,12a15,15,0,0,0-.77-2h0A13.73,13.73,0,0,1,29.41,12Z"></path><path fill="#9ccc65" d="M11 12H8a1 1 0 0 1 0-2h3a1 1 0 0 1 0 2zM24 22H21a1 1 0 0 1 0-2h3a1 1 0 0 1 0 2zM29.85 14H19a3 3 0 0 1-3-3 3 3 0 0 1 3-3h8.47a4.72 4.72 0 0 1 .32.46A13.7 13.7 0 0 1 28.65 10h0a15 15 0 0 1 .77 2c.08.25.15.51.21.77A9.89 9.89 0 0 1 29.85 14zM15.13 18.89A3 3 0 0 0 13 18H2.15a9.89 9.89 0 0 0 .23 1.23c.06.26.13.52.21.77a15 15 0 0 0 .77 2h0a13.71 13.71 0 0 0 .86 1.54 4.72 4.72 0 0 0 .32.46H13a3 3 0 0 0 3-3A3 3 0 0 0 15.13 18.89z"></path></g></svg>